<?xml version="1.0" encoding="iso-8859-1"?>
<!-- Uploaded to: SVG Repo, www.svgrepo.com, Generator: SVG Repo Mixer Tools -->
<svg version="1.1" id="Layer_1" xmlns="http://www.w3.org/2000/svg" xmlns:xlink="http://www.w3.org/1999/xlink" 
	 viewBox="0 0 512 512" xml:space="preserve">
<path style="fill:#696B6F;" d="M361.739,133.565H150.261c-9.217,0-16.696-7.473-16.696-16.696V50.087
	C133.565,22.468,156.033,0,183.652,0h144.696c27.619,0,50.087,22.468,50.087,50.087v66.783
	C378.435,126.092,370.956,133.565,361.739,133.565z M166.957,100.174h178.087V50.087c0-9.206-7.49-16.696-16.696-16.696H183.652
	c-9.206,0-16.696,7.49-16.696,16.696V100.174z"/>
<path style="fill:#616267;" d="M328.348,0H256v33.391h72.348c9.206,0,16.696,7.49,16.696,16.696v50.087H256v33.391h105.739
	c9.217,0,16.696-7.473,16.696-16.696V50.087C378.435,22.468,355.967,0,328.348,0z"/>
<path style="fill:#CED1DD;" d="M0,178.087v283.826C0,489.532,22.468,512,50.087,512h411.826C489.532,512,512,489.532,512,461.913
	V178.087H0z"/>
<path style="fill:#C4C6D2;" d="M256,512h205.913C489.532,512,512,489.532,512,461.913V178.087H256V512z"/>
<path style="fill:#DFE2EF;" d="M428.522,512H83.478V178.087h345.043V512z"/>
<rect x="256" y="178.087" style="fill:#D5D7E5;" width="172.522" height="333.913"/>
<path style="fill:#FF5F4A;" d="M512,211.478H0v-61.217c0-27.662,22.424-50.087,50.087-50.087h411.826
	c27.662,0,50.087,22.424,50.087,50.087V211.478z"/>
<path style="fill:#D8482B;" d="M461.913,100.174H256v111.304h256v-61.217C512,122.598,489.577,100.174,461.913,100.174z"/>
<path style="fill:#FF5F4A;" d="M289.391,445.217h-66.783c-9.217,0-16.696-7.473-16.696-16.696V395.13h-33.391
	c-9.217,0-16.696-7.473-16.696-16.696v-66.783c0-9.223,7.479-16.696,16.696-16.696h33.391v-33.391
	c0-9.223,7.479-16.696,16.696-16.696h66.783c9.217,0,16.696,7.473,16.696,16.696v33.391h33.391c9.217,0,16.696,7.473,16.696,16.696
	v66.783c0,9.223-7.479,16.696-16.696,16.696h-33.391v33.391C306.087,437.744,298.608,445.217,289.391,445.217z"/>
<path style="fill:#D8482B;" d="M339.478,294.957h-33.391v-33.391c0-9.223-7.479-16.696-16.696-16.696H256v200.348h33.391
	c9.217,0,16.696-7.473,16.696-16.696V395.13h33.391c9.217,0,16.696-7.473,16.696-16.696v-66.783
	C356.174,302.429,348.695,294.957,339.478,294.957z"/>
</svg>